<svg width="90" height="25" viewBox="0 0 90 25" fill="none" xmlns="http://www.w3.org/2000/svg">
<g clip-path="url(#clip0_1_5181)">
<path d="M20.12 17.5V11.439C20.12 10.779 20.0577 10.174 19.933 9.624C19.8083 9.06667 19.6067 8.58267 19.328 8.172C19.0567 7.754 18.701 7.43133 18.261 7.204C17.8283 6.97667 17.3003 6.863 16.677 6.863C16.105 6.863 15.599 6.962 15.159 7.16C14.7263 7.358 14.3597 7.644 14.059 8.018C13.7657 8.38467 13.542 8.832 13.388 9.36C13.234 9.888 13.157 10.4893 13.157 11.164L12.013 10.911C12.013 9.69367 12.2257 8.67067 12.651 7.842C13.0763 7.01333 13.663 6.38633 14.411 5.961C15.159 5.53567 16.017 5.323 16.985 5.323C17.6963 5.323 18.316 5.433 18.844 5.653C19.3793 5.873 19.8303 6.17 20.197 6.544C20.571 6.918 20.8717 7.347 21.099 7.831C21.3263 8.30767 21.4913 8.81733 21.594 9.36C21.6967 9.89533 21.748 10.4307 21.748 10.966V17.5H20.12ZM11.529 17.5V5.62H12.992V8.546H13.157V17.5H11.529ZM29.499 17.83C28.3184 17.83 27.31 17.5623 26.474 17.027C25.638 16.4917 24.9964 15.751 24.549 14.805C24.1017 13.859 23.878 12.7737 23.878 11.549C23.878 10.3023 24.1054 9.20967 24.56 8.271C25.0147 7.33233 25.66 6.60267 26.496 6.082C27.3394 5.554 28.3404 5.29 29.499 5.29C30.687 5.29 31.699 5.55767 32.535 6.093C33.3784 6.621 34.02 7.358 34.46 8.304C34.9074 9.24267 35.131 10.3243 35.131 11.549C35.131 12.7957 34.9074 13.892 34.46 14.838C34.0127 15.7767 33.3674 16.51 32.524 17.038C31.6807 17.566 30.6724 17.83 29.499 17.83ZM29.499 16.279C30.819 16.279 31.8017 15.8427 32.447 14.97C33.0924 14.09 33.415 12.9497 33.415 11.549C33.415 10.1117 33.0887 8.96767 32.436 8.117C31.7907 7.26633 30.8117 6.841 29.499 6.841C28.6117 6.841 27.8784 7.04267 27.299 7.446C26.727 7.842 26.298 8.39567 26.012 9.107C25.7334 9.811 25.594 10.625 25.594 11.549C25.594 12.979 25.924 14.1267 26.584 14.992C27.244 15.85 28.2157 16.279 29.499 16.279ZM37.7776 17.5V1.33H39.3946V17.5H37.7776ZM47.6533 17.83C46.4727 17.83 45.4643 17.5623 44.6283 17.027C43.7923 16.4917 43.1507 15.751 42.7033 14.805C42.256 13.859 42.0323 12.7737 42.0323 11.549C42.0323 10.3023 42.2597 9.20967 42.7143 8.271C43.169 7.33233 43.8143 6.60267 44.6503 6.082C45.4937 5.554 46.4947 5.29 47.6533 5.29C48.8413 5.29 49.8533 5.55767 50.6893 6.093C51.5327 6.621 52.1743 7.358 52.6143 8.304C53.0617 9.24267 53.2853 10.3243 53.2853 11.549C53.2853 12.7957 53.0617 13.892 52.6143 14.838C52.167 15.7767 51.5217 16.51 50.6783 17.038C49.835 17.566 48.8267 17.83 47.6533 17.83ZM47.6533 16.279C48.9733 16.279 49.956 15.8427 50.6013 14.97C51.2467 14.09 51.5693 12.9497 51.5693 11.549C51.5693 10.1117 51.243 8.96767 50.5903 8.117C49.945 7.26633 48.966 6.841 47.6533 6.841C46.766 6.841 46.0327 7.04267 45.4533 7.446C44.8813 7.842 44.4523 8.39567 44.1663 9.107C43.8877 9.811 43.7483 10.625 43.7483 11.549C43.7483 12.979 44.0783 14.1267 44.7383 14.992C45.3983 15.85 46.37 16.279 47.6533 16.279ZM60.4309 23.11C59.8222 23.11 59.2209 23.0183 58.6269 22.835C58.0402 22.659 57.4975 22.3767 56.9989 21.988C56.5002 21.6067 56.0822 21.108 55.7449 20.492L57.2079 19.678C57.5379 20.338 57.9999 20.811 58.5939 21.097C59.1952 21.3903 59.8075 21.537 60.4309 21.537C61.2889 21.537 61.9819 21.3757 62.5099 21.053C63.0452 20.7377 63.4339 20.2683 63.6759 19.645C63.9179 19.0217 64.0352 18.2443 64.0279 17.313V14.145H64.2149V5.62H65.6559V17.335C65.6559 17.6723 65.6449 17.995 65.6229 18.303C65.6082 18.6183 65.5752 18.9263 65.5239 19.227C65.3845 20.1143 65.0949 20.844 64.6549 21.416C64.2222 21.988 63.6502 22.4133 62.9389 22.692C62.2349 22.9707 61.3989 23.11 60.4309 23.11ZM60.3209 17.83C59.2135 17.83 58.2675 17.555 57.4829 17.005C56.6982 16.4477 56.0969 15.696 55.6789 14.75C55.2609 13.804 55.0519 12.737 55.0519 11.549C55.0519 10.3683 55.2572 9.305 55.6679 8.359C56.0859 7.413 56.6835 6.665 57.4609 6.115C58.2382 5.565 59.1695 5.29 60.2549 5.29C61.3695 5.29 62.3082 5.56133 63.0709 6.104C63.8335 6.64667 64.4092 7.391 64.7979 8.337C65.1939 9.27567 65.3919 10.3463 65.3919 11.549C65.3919 12.7297 65.1975 13.7967 64.8089 14.75C64.4202 15.696 63.8482 16.4477 63.0929 17.005C62.3375 17.555 61.4135 17.83 60.3209 17.83ZM60.4859 16.323C61.3292 16.323 62.0259 16.1177 62.5759 15.707C63.1259 15.2963 63.5365 14.7317 63.8079 14.013C64.0792 13.287 64.2149 12.4657 64.2149 11.549C64.2149 10.6177 64.0792 9.79633 63.8079 9.085C63.5365 8.36633 63.1259 7.80533 62.5759 7.402C62.0332 6.99867 61.3475 6.797 60.5189 6.797C59.6682 6.797 58.9642 7.006 58.4069 7.424C57.8495 7.842 57.4352 8.41033 57.1639 9.129C56.8999 9.84767 56.7679 10.6543 56.7679 11.549C56.7679 12.451 56.9035 13.265 57.1749 13.991C57.4535 14.7097 57.8679 15.278 58.4179 15.696C58.9679 16.114 59.6572 16.323 60.4859 16.323ZM73.6924 17.83C72.5117 17.83 71.5034 17.5623 70.6674 17.027C69.8314 16.4917 69.1897 15.751 68.7424 14.805C68.2951 13.859 68.0714 12.7737 68.0714 11.549C68.0714 10.3023 68.2987 9.20967 68.7534 8.271C69.2081 7.33233 69.8534 6.60267 70.6894 6.082C71.5327 5.554 72.5337 5.29 73.6924 5.29C74.8804 5.29 75.8924 5.55767 76.7284 6.093C77.5717 6.621 78.2134 7.358 78.6534 8.304C79.1007 9.24267 79.3244 10.3243 79.3244 11.549C79.3244 12.7957 79.1007 13.892 78.6534 14.838C78.2061 15.7767 77.5607 16.51 76.7174 17.038C75.8741 17.566 74.8657 17.83 73.6924 17.83ZM73.6924 16.279C75.0124 16.279 75.9951 15.8427 76.6404 14.97C77.2857 14.09 77.6084 12.9497 77.6084 11.549C77.6084 10.1117 77.2821 8.96767 76.6294 8.117C75.9841 7.26633 75.0051 6.841 73.6924 6.841C72.8051 6.841 72.0717 7.04267 71.4924 7.446C70.9204 7.842 70.4914 8.39567 70.2054 9.107C69.9267 9.811 69.7874 10.625 69.7874 11.549C69.7874 12.979 70.1174 14.1267 70.7774 14.992C71.4374 15.85 72.4091 16.279 73.6924 16.279Z" fill="black"/>
</g>
<defs>
<clipPath id="clip0_1_5181">
<rect width="90" height="24" fill="white" transform="translate(0 0.5)"/>
</clipPath>
</defs>
</svg>
